<svg xmlns="http://www.w3.org/2000/svg" width="1211" height="1024" viewBox="0 0 1211 1024">
  <g fill="#F6880F" fill-rule="evenodd"><path d="M 591.0 290.0 L 587.0 288.0 L 579.0 288.0 L 573.0 292.0 L 76.0 928.0 L 71.0 936.0 L 71.0 943.0 L 77.0 951.0 L 83.0 953.0 L 89.0 952.0 L 95.0 947.0 L 588.0 316.0 L 596.0 304.0 L 595.0 295.0 Z M 317.0 294.0 L 303.0 290.0 L 283.0 290.0 L 272.0 293.0 L 262.0 298.0 L 255.0 303.0 L 243.0 316.0 L 234.0 336.0 L 233.0 358.0 L 235.0 368.0 L 265.0 440.0 L 271.0 459.0 L 272.0 469.0 L 269.0 484.0 L 264.0 493.0 L 256.0 502.0 L 243.0 510.0 L 234.0 512.0 L 220.0 511.0 L 204.0 504.0 L 187.0 488.0 L 178.0 472.0 L 173.0 452.0 L 173.0 430.0 L 177.0 411.0 L 177.0 406.0 L 173.0 403.0 L 171.0 403.0 L 137.0 471.0 L 142.0 475.0 L 150.0 470.0 L 158.0 471.0 L 165.0 478.0 L 178.0 496.0 L 193.0 511.0 L 208.0 521.0 L 224.0 528.0 L 238.0 531.0 L 256.0 531.0 L 274.0 526.0 L 287.0 518.0 L 296.0 509.0 L 306.0 493.0 L 310.0 480.0 L 311.0 464.0 L 304.0 435.0 L 273.0 361.0 L 270.0 340.0 L 275.0 325.0 L 286.0 313.0 L 294.0 309.0 L 310.0 308.0 L 324.0 313.0 L 339.0 326.0 L 350.0 344.0 L 355.0 360.0 L 355.0 381.0 L 351.0 399.0 L 348.0 405.0 L 354.0 411.0 L 391.0 344.0 L 387.0 340.0 L 377.0 345.0 L 369.0 343.0 L 340.0 308.0 L 329.0 300.0 Z M 1000.0 70.0 L 978.0 74.0 L 965.0 79.0 L 947.0 90.0 L 932.0 104.0 L 922.0 118.0 L 912.0 141.0 L 909.0 156.0 L 909.0 180.0 L 915.0 204.0 L 923.0 220.0 L 931.0 231.0 L 943.0 243.0 L 957.0 253.0 L 981.0 263.0 L 998.0 266.0 L 1015.0 266.0 L 1032.0 263.0 L 1056.0 253.0 L 1070.0 243.0 L 1082.0 231.0 L 1090.0 220.0 L 1101.0 195.0 L 1104.0 180.0 L 1104.0 156.0 L 1099.0 135.0 L 1091.0 118.0 L 1081.0 104.0 L 1070.0 93.0 L 1054.0 82.0 L 1035.0 74.0 L 1022.0 71.0 Z M 1003.0 75.0 L 1020.0 76.0 L 1039.0 81.0 L 1052.0 87.0 L 1065.0 96.0 L 1079.0 110.0 L 1090.0 127.0 L 1096.0 143.0 L 1099.0 157.0 L 1099.0 179.0 L 1097.0 190.0 L 1091.0 207.0 L 1080.0 225.0 L 1064.0 241.0 L 1054.0 248.0 L 1034.0 257.0 L 1013.0 261.0 L 1000.0 261.0 L 979.0 257.0 L 959.0 248.0 L 949.0 241.0 L 934.0 226.0 L 924.0 211.0 L 918.0 197.0 L 914.0 179.0 L 914.0 157.0 L 917.0 143.0 L 923.0 127.0 L 934.0 110.0 L 948.0 96.0 L 961.0 87.0 L 983.0 78.0 Z M 1003.0 95.0 L 989.0 97.0 L 971.0 104.0 L 962.0 110.0 L 948.0 124.0 L 937.0 145.0 L 934.0 158.0 L 934.0 178.0 L 938.0 194.0 L 944.0 206.0 L 953.0 218.0 L 963.0 227.0 L 985.0 238.0 L 1000.0 241.0 L 1013.0 241.0 L 1028.0 238.0 L 1044.0 231.0 L 1056.0 222.0 L 1065.0 212.0 L 1077.0 188.0 L 1079.0 178.0 L 1079.0 158.0 L 1076.0 145.0 L 1069.0 130.0 L 1065.0 124.0 L 1051.0 110.0 L 1038.0 102.0 L 1024.0 97.0 Z M 1005.0 100.0 L 1018.0 101.0 L 1032.0 105.0 L 1050.0 116.0 L 1064.0 132.0 L 1070.0 144.0 L 1074.0 160.0 L 1074.0 177.0 L 1072.0 186.0 L 1067.0 199.0 L 1059.0 211.0 L 1042.0 226.0 L 1023.0 234.0 L 1011.0 236.0 L 990.0 234.0 L 981.0 231.0 L 964.0 221.0 L 954.0 211.0 L 946.0 199.0 L 939.0 177.0 L 939.0 160.0 L 941.0 150.0 L 949.0 132.0 L 955.0 124.0 L 967.0 113.0 L 981.0 105.0 L 995.0 101.0 Z"/></g>
  <g fill="#3279F3" fill-rule="evenodd"><path d="M 1138.0 313.0 L 1133.0 304.0 L 1125.0 296.0 L 1116.0 291.0 L 1108.0 289.0 L 591.0 289.0 L 595.0 292.0 L 598.0 300.0 L 597.0 305.0 L 592.0 312.0 L 847.0 311.0 L 848.0 313.0 L 670.0 533.0 L 443.0 533.0 L 436.0 529.0 L 432.0 522.0 L 432.0 517.0 L 415.0 539.0 L 421.0 546.0 L 428.0 551.0 L 440.0 555.0 L 678.0 556.0 L 965.0 554.0 L 976.0 548.0 L 982.0 542.0 L 1131.0 350.0 L 1139.0 334.0 L 1140.0 322.0 Z M 1115.0 318.0 L 1117.0 322.0 L 1117.0 330.0 L 1115.0 334.0 L 962.0 530.0 L 955.0 533.0 L 701.0 532.0 L 879.0 311.0 L 1104.0 311.0 L 1110.0 313.0 Z"/></g>
</svg>
